<?xml version="1.0" encoding="UTF-8"?><svg id="Layer_1" xmlns="http://www.w3.org/2000/svg" viewBox="0 0 514.44 98.27"><defs><style>.cls-1{fill:#03147b;}.cls-2{fill:#f37a70;}.cls-3{fill:#fcd900;}.cls-4{fill:#2d58ca;}.cls-5{fill:#4ac3ca;}</style></defs><path class="cls-1" d="m135.76,77.61c-10.5,0-19.51-3.89-27.02-11.68l8.76-10.85c2.64,3.06,5.6,5.37,8.87,6.94,3.27,1.56,6.47,2.35,9.6,2.35,3.48,0,6.12-.71,7.93-2.14,1.81-1.42,2.71-3.32,2.71-5.69,0-2.57-.94-4.54-2.82-5.89-1.88-1.36-5.25-2.87-10.12-4.54-3.34-1.18-6.12-2.31-8.35-3.39-2.23-1.08-4.52-2.52-6.89-4.33-2.36-1.81-4.14-4-5.32-6.57-1.18-2.57-1.77-5.53-1.77-8.87,0-5.91,2.3-10.88,6.89-14.92,4.59-4.03,10.22-6.12,16.9-6.26,9.04-.07,17.35,3.06,24.93,9.39l-8.45,11.06c-5.84-4.87-11.23-7.3-16.17-7.3-2.64,0-4.78.66-6.42,1.98-1.64,1.32-2.45,3.13-2.45,5.42-.07,2.16.8,3.88,2.61,5.16,1.81,1.29,5.08,2.87,9.81,4.75,7.65,2.99,12.66,5.29,15.02,6.89,5.28,3.62,7.93,8.87,7.93,15.75,0,7.44-2.64,13.09-7.93,16.95-5.29,3.86-11.37,5.79-18.26,5.79Z"/><path class="cls-1" d="m203.67,25.87h13.67v50.91h-13.67v-6.26h-.21c-3.9,4.73-8.94,7.09-15.13,7.09-12.45,0-18.67-7.02-18.67-21.07v-30.67h13.56v27.02c0,4.59.71,7.82,2.14,9.7,1.42,1.88,3.77,2.82,7.04,2.82s5.79-1.3,7.98-3.91c2.19-2.61,3.29-6.24,3.29-10.9v-24.72Z"/><path class="cls-1" d="m257.4,25.04c6.88,0,12.6,2.49,17.16,7.46,4.55,4.97,6.83,11.28,6.83,18.93s-2.28,14.1-6.83,18.93c-4.56,4.83-10.42,7.25-17.58,7.25-6.26,0-11.27-2.19-15.02-6.57h-.21v26.39h-13.67V25.87h13.67v5.84h.21c3.89-4.45,9.04-6.68,15.44-6.68Zm-2.92,40.37c3.89,0,7.04-1.29,9.44-3.86,2.4-2.57,3.6-5.91,3.6-10.01,0-4.31-1.23-7.77-3.7-10.38s-5.58-3.91-9.34-3.91-7.08,1.36-9.54,4.07c-2.47,2.71-3.7,6.12-3.7,10.22s1.27,7.44,3.81,10.01c2.54,2.57,5.69,3.86,9.44,3.86Z"/><path class="cls-1" d="m337.31,50.8c0,2.71-.1,4.35-.31,4.9h-35.78c.83,3.06,2.4,5.46,4.69,7.2,2.29,1.74,5.08,2.61,8.35,2.61,4.94.07,9.01-1.84,12.21-5.74l8.87,8.24c-5.08,6.4-12.41,9.6-22.01,9.6-7.58,0-13.84-2.43-18.78-7.3-4.94-4.87-7.41-11.23-7.41-19.09s2.38-13.93,7.15-18.83c4.76-4.9,10.8-7.35,18.1-7.35s13.37,2.42,18,7.25c4.62,4.83,6.94,11.01,6.94,18.52Zm-24.52-13.77c-2.85,0-5.29.77-7.3,2.29-2.02,1.53-3.41,3.72-4.17,6.57h22.43c-1.53-5.91-5.18-8.87-10.95-8.87Z"/><path class="cls-1" d="m374.86,25.04c.56,0,.9.04,1.04.1v14.81c-.9-.07-2.09-.1-3.55-.1-4.1,0-7.3,1.24-9.6,3.7-2.29,2.47-3.44,5.65-3.44,9.54v23.68h-13.67V25.87h13.67v7.51h.1c3.96-5.56,9.11-8.35,15.44-8.35Z"/><path class="cls-1" d="m417.22,25.87h13.56v45.07c0,18.22-8.83,27.33-26.5,27.33-7.79,0-14.78-1.71-20.97-5.11l3.23-11.58c5.7,3.2,11.2,4.8,16.48,4.8,4.59,0,8.15-1.08,10.69-3.23,2.54-2.16,3.81-4.87,3.81-8.14v-5.11h-.31c-3.62,3.96-8.55,5.95-14.81,5.95-7.09,0-12.92-2.33-17.47-6.99-4.56-4.66-6.83-10.67-6.83-18.05s2.23-13.68,6.68-18.52c4.45-4.83,10.08-7.25,16.9-7.25,6.12,0,11.2,2.02,15.23,6.05h.31v-5.22Zm-21.59,34.06c2.43,2.4,5.53,3.6,9.28,3.6s6.83-1.23,9.23-3.7c2.4-2.47,3.6-5.65,3.6-9.54s-1.22-6.92-3.65-9.28c-2.43-2.36-5.49-3.55-9.18-3.55s-6.94,1.2-9.34,3.6-3.6,5.51-3.6,9.34,1.22,7.15,3.65,9.55Z"/><path class="cls-1" d="m442.15,76.78V0h13.67v76.78h-13.67Z"/><path class="cls-1" d="m500.78,25.87h13.67v50.91h-13.67v-6.26h-.21c-3.9,4.73-8.94,7.09-15.13,7.09-12.45,0-18.67-7.02-18.67-21.07v-30.67h13.56v27.02c0,4.59.71,7.82,2.14,9.7,1.42,1.88,3.77,2.82,7.04,2.82s5.79-1.3,7.98-3.91,3.29-6.24,3.29-10.9v-24.72Z"/><circle class="cls-5" cx="18.55" cy="18.47" r="15.3"/><path class="cls-4" d="m0,39.73h37.11v37.92S0,78.46,0,39.73Z"/><circle class="cls-2" cx="64.06" cy="18.47" r="15.3"/><path class="cls-3" d="m82.61,39.73h-37.11s0,37.92,0,37.92c0,0,37.11.81,37.11-37.92Z"/></svg>